<svg width="48" height="49" viewBox="0 0 48 49" fill="none" xmlns="http://www.w3.org/2000/svg">
<path d="M4.78716 9.18866H9.57454C10.0152 9.18866 10.3724 8.82511 10.3724 8.37665C10.3724 7.92819 10.0152 7.56464 9.57454 7.56464H4.78716C4.34649 7.56464 3.98926 7.92819 3.98926 8.37665C3.98926 8.82511 4.34649 9.18866 4.78716 9.18866Z" fill="black"/>
<path d="M13.5645 9.18866H20.7456C21.1863 9.18866 21.5435 8.82511 21.5435 8.37665C21.5435 7.92819 21.1863 7.56464 20.7456 7.56464H13.5645C13.1238 7.56464 12.7666 7.92819 12.7666 8.37665C12.7666 8.82511 13.1238 9.18866 13.5645 9.18866Z" fill="black"/>
<path d="M4.78716 18.1218H30.32C30.7606 18.1218 31.1179 17.758 31.1179 17.3093C31.1179 16.8605 30.7606 16.4968 30.32 16.4968H4.78716C4.34649 16.4968 3.98926 16.8605 3.98926 17.3093C3.98926 17.758 4.34649 18.1218 4.78716 18.1218Z" fill="black"/>
<path d="M4.78716 21.3688H15.9578C16.3984 21.3688 16.7557 21.0052 16.7557 20.5568C16.7557 20.1083 16.3984 19.7448 15.9578 19.7448H4.78716C4.34649 19.7448 3.98926 20.1083 3.98926 20.5568C3.98926 21.0052 4.34649 21.3688 4.78716 21.3688Z" fill="black"/>
<path d="M4.78716 27.8648H15.9578C16.3984 27.8648 16.7557 27.5013 16.7557 27.0528C16.7557 26.6044 16.3984 26.2408 15.9578 26.2408H4.78716C4.34649 26.2408 3.98926 26.6044 3.98926 27.0528C3.98926 27.5013 4.34649 27.8648 4.78716 27.8648Z" fill="black"/>
<path d="M4.78716 34.3619H15.9578C16.3984 34.3619 16.7557 33.9981 16.7557 33.5494C16.7557 33.1006 16.3984 32.7368 15.9578 32.7368H4.78716C4.34649 32.7368 3.98926 33.1006 3.98926 33.5494C3.98926 33.9981 4.34649 34.3619 4.78716 34.3619Z" fill="black"/>
<path d="M4.78716 40.8579H15.9578C16.3984 40.8579 16.7557 40.4941 16.7557 40.0454C16.7557 39.5967 16.3984 39.2329 15.9578 39.2329H4.78716C4.34649 39.2329 3.98926 39.5967 3.98926 40.0454C3.98926 40.4941 4.34649 40.8579 4.78716 40.8579Z" fill="black"/>
<path d="M47.3953 23.9103L38.2992 19.9128V2.69256C38.2992 1.34718 37.2275 0.256531 35.9055 0.256531H5.5853C4.2633 0.256531 3.1916 1.34718 3.1916 2.69256V3.50456H2.3937C1.0717 3.50456 0 4.59521 0 5.94059V46.541C0 47.8864 1.0717 48.977 2.3937 48.977H32.7139C33.3594 48.9756 33.9769 48.7081 34.4254 48.2357L35.0797 48.7091C35.5743 49.0664 36.2368 49.0664 36.7313 48.7091L44.451 43.1168C46.591 41.5711 47.8659 39.0688 47.874 36.3982V24.6558C47.8745 24.3325 47.6865 24.0397 47.3953 23.9103ZM4.7874 2.69256C4.7874 2.2441 5.14463 1.88055 5.5853 1.88055H35.9055C36.3462 1.88055 36.7034 2.2441 36.7034 2.69256V19.2112L36.2247 18.9993C36.023 18.9108 35.7944 18.9108 35.5927 18.9993L35.114 19.2112V14.0607C35.114 14.0428 35.1052 14.0258 35.1036 14.0079C35.0997 13.9399 35.0868 13.8727 35.0653 13.8081C35.0597 13.7895 35.0605 13.77 35.0534 13.7521C35.0462 13.7342 35.0406 13.7342 35.0366 13.7245C34.9978 13.6362 34.9437 13.5556 34.877 13.4866L25.3022 3.74248C25.2344 3.6746 25.1553 3.6196 25.0684 3.58008C25.0581 3.57521 25.0509 3.56709 25.0413 3.56303C25.0317 3.55897 25.0046 3.55653 24.987 3.55085C24.9228 3.52905 24.856 3.51568 24.7884 3.51106C24.7684 3.5135 24.7525 3.50456 24.7349 3.50456H4.7874V2.69256ZM25.5328 6.27676L32.3836 13.2487H26.3307C25.89 13.2487 25.5328 12.8851 25.5328 12.4367V6.27676ZM32.7139 47.353H2.3937C1.95303 47.353 1.5958 46.9895 1.5958 46.541V5.94059C1.5958 5.49213 1.95303 5.12858 2.3937 5.12858H23.937V12.4367C23.937 13.782 25.0087 14.8727 26.3307 14.8727H33.5118V19.9128L30.9434 21.0439C31.0536 20.9061 31.1151 20.7345 31.1181 20.5567C31.1181 20.1083 30.7609 19.7447 30.3202 19.7447H19.1496C18.7089 19.7447 18.3517 20.1083 18.3517 20.5567C18.3517 21.0052 18.7089 21.3687 19.1496 21.3687H30.1997L26.5055 22.9928H4.7874C4.34673 22.9928 3.9895 23.3563 3.9895 23.8048C3.9895 24.2532 4.34673 24.6168 4.7874 24.6168H23.9426C23.9426 24.6298 23.937 24.642 23.937 24.6558V26.2408H19.1496C18.7089 26.2408 18.3517 26.6043 18.3517 27.0528C18.3517 27.5013 18.7089 27.8648 19.1496 27.8648H23.937V29.4888H4.7874C4.34673 29.4888 3.9895 29.8524 3.9895 30.3008C3.9895 30.7493 4.34673 31.1129 4.7874 31.1129H23.937V32.7369H19.1496C18.7089 32.7369 18.3517 33.1004 18.3517 33.5489C18.3517 33.9973 18.7089 34.3609 19.1496 34.3609H23.937V35.9849H4.7874C4.34673 35.9849 3.9895 36.3484 3.9895 36.7969C3.9895 37.2454 4.34673 37.6089 4.7874 37.6089H24.0367C24.1161 38.1629 24.2514 38.7072 24.4405 39.2329H19.1496C18.7089 39.2329 18.3517 39.5965 18.3517 40.0449C18.3517 40.4934 18.7089 40.857 19.1496 40.857H25.2464C25.6234 41.4544 26.0742 42.0002 26.5876 42.481H4.7874C4.34673 42.481 3.9895 42.8445 3.9895 43.293C3.9895 43.7414 4.34673 44.105 4.7874 44.105H28.7244L33.0714 47.254C32.9618 47.3158 32.8392 47.3497 32.7139 47.353ZM46.2782 36.3982C46.2705 38.5432 45.2456 40.5524 43.5263 41.7932L35.9055 47.314L28.2848 41.7924C26.5657 40.5518 25.5408 38.5429 25.5328 36.3982V25.1925L26.977 24.5575L26.9922 24.551L35.9055 20.629L46.2782 25.1892V36.3982Z" fill="black"/>
<path d="M35.5867 22.5373L27.6076 26.0451C27.3165 26.1745 27.1284 26.4673 27.1289 26.7906V36.3982C27.1362 38.0176 27.9111 39.5339 29.2098 40.4696L35.443 44.9852C35.72 45.1859 36.0916 45.1859 36.3686 44.9852L42.6018 40.4696C43.9003 39.5337 44.6752 38.0176 44.6827 36.3982V26.7906C44.6832 26.4673 44.4952 26.1745 44.204 26.0451L36.225 22.5373C36.0215 22.4469 35.7902 22.4469 35.5867 22.5373ZM43.0869 27.3281V36.3982C43.0811 37.4942 42.5554 38.5198 41.6754 39.1518L35.9058 43.3271L30.1362 39.1469C29.2573 38.5162 28.7317 37.4926 28.7247 36.3982V27.3241L35.9058 24.1678L43.0869 27.3281Z" fill="black"/>
<path d="M31.597 34.5233C31.3689 34.3493 31.0669 34.3123 30.8048 34.4262C30.5426 34.5402 30.3602 34.7878 30.3261 35.0758C30.292 35.3638 30.4114 35.6485 30.6395 35.8225L33.8311 38.2586C34.1758 38.5218 34.6637 38.4589 34.933 38.1165L41.3162 29.9964C41.5916 29.6462 41.5359 29.135 41.1917 28.8547C40.8476 28.5744 40.3453 28.6312 40.0699 28.9814L34.1702 36.4876L31.597 34.5233Z" fill="black"/>
</svg>
