<svg width="48" height="49" viewBox="0 0 48 49" fill="none" xmlns="http://www.w3.org/2000/svg">
<path d="M38.7106 14.4289C39.2269 14.4289 39.6457 14.0029 39.6457 13.4773V3.12895C39.6457 1.55486 38.3873 0.274231 36.8405 0.274231H2.80512C1.25838 0.274231 0 1.55486 0 3.12895V46.14C0 47.7141 1.25838 48.9948 2.80512 48.9948H36.8405C38.3873 48.9948 39.6457 47.7141 39.6457 46.14V39.1296C39.6457 38.6041 39.2269 38.178 38.7106 38.178C38.1943 38.178 37.7756 38.6041 37.7756 39.1296V46.14C37.7756 46.6647 37.3561 47.0916 36.8405 47.0916H2.80512C2.28954 47.0916 1.87008 46.6647 1.87008 46.14V3.12895C1.87008 2.60425 2.28954 2.17738 2.80512 2.17738H36.8405C37.3561 2.17738 37.7756 2.60425 37.7756 3.12895V13.4773C37.7756 14.0029 38.1943 14.4289 38.7106 14.4289Z" fill="black"/>
<path d="M19.8221 5.41272C15.0787 5.41272 11.2197 9.33996 11.2197 14.1672C11.2197 16.6714 12.2586 18.9331 13.9203 20.5303C13.9514 20.5641 13.9845 20.5962 14.0207 20.6254C15.5515 22.0508 17.5886 22.9216 19.822 22.9216C22.0553 22.9216 24.0925 22.0507 25.6233 20.6254C25.6594 20.5962 25.6925 20.564 25.7237 20.5303C27.3856 18.9331 28.4244 16.6714 28.4244 14.1672C28.4244 9.33996 24.5654 5.41272 19.8221 5.41272ZM19.8221 21.0185C18.2953 21.0185 16.8862 20.4978 15.7555 19.6228C16.5773 18.1397 18.1109 17.2122 19.8221 17.2122C21.5333 17.2122 23.0669 18.1397 23.8887 19.6228C22.7579 20.4978 21.3489 21.0185 19.8221 21.0185ZM18.326 13.7866V13.168C18.326 12.3286 18.9972 11.6455 19.8221 11.6455C20.647 11.6455 21.3181 12.3286 21.3181 13.168V13.7866C21.3181 14.626 20.647 15.3091 19.8221 15.3091C18.9972 15.3091 18.326 14.626 18.326 13.7866ZM25.2397 18.2288C24.5501 17.188 23.5944 16.3785 22.4848 15.8787C22.9252 15.2995 23.1882 14.5739 23.1882 13.7866V13.168C23.1882 11.2791 21.6782 9.74238 19.8221 9.74238C17.9659 9.74238 16.4559 11.2791 16.4559 13.168V13.7866C16.4559 14.5739 16.719 15.2995 17.1594 15.8787C16.0498 16.3785 15.0941 17.188 14.4045 18.2288C13.5789 17.0914 13.0898 15.6866 13.0898 14.1672C13.0898 10.3894 16.1099 7.31587 19.8221 7.31587C23.5343 7.31587 26.5544 10.3894 26.5544 14.1672C26.5544 15.6866 26.0652 17.0914 25.2397 18.2288Z" fill="black"/>
<path d="M24.8719 41.9531H19.8227C19.3064 41.9531 18.8877 42.3791 18.8877 42.9047C18.8877 43.4302 19.3064 43.8562 19.8227 43.8562H24.8719C25.3883 43.8562 25.807 43.4302 25.807 42.9047C25.807 42.3791 25.3883 41.9531 24.8719 41.9531Z" fill="black"/>
<path d="M24.8718 36.6243H11.5942C11.0779 36.6243 10.6592 37.0503 10.6592 37.5759C10.6592 38.1014 11.0779 38.5275 11.5942 38.5275H24.8718C25.3881 38.5275 25.8068 38.1014 25.8068 37.5759C25.8068 37.0503 25.3881 36.6243 24.8718 36.6243Z" fill="black"/>
<path d="M24.8718 31.2955H11.5942C11.0779 31.2955 10.6592 31.7215 10.6592 32.2471C10.6592 32.7726 11.0779 33.1986 11.5942 33.1986H24.8718C25.3881 33.1986 25.8068 32.7726 25.8068 32.2471C25.8068 31.7215 25.3881 31.2955 24.8718 31.2955Z" fill="black"/>
<path d="M8.26198 26.2455C8.08816 26.0685 7.84692 25.9667 7.60007 25.9667C7.35407 25.9667 7.11283 26.0685 6.939 26.2455C6.76509 26.4225 6.66504 26.668 6.66504 26.9182C6.66504 27.1685 6.76499 27.414 6.939 27.591C7.11386 27.768 7.35407 27.8698 7.60007 27.8698C7.84692 27.8698 8.08723 27.768 8.26198 27.591C8.4359 27.414 8.53604 27.1685 8.53604 26.9182C8.53604 26.668 8.43599 26.4225 8.26198 26.2455Z" fill="black"/>
<path d="M8.26198 31.5743C8.08723 31.3973 7.84692 31.2955 7.60007 31.2955C7.35407 31.2955 7.11386 31.3973 6.939 31.5743C6.76509 31.7513 6.66504 31.9968 6.66504 32.2471C6.66504 32.4973 6.76499 32.7428 6.939 32.9198C7.11386 33.0968 7.35407 33.1986 7.60007 33.1986C7.84692 33.1986 8.08723 33.0968 8.26198 32.9198C8.4359 32.7428 8.53604 32.4973 8.53604 32.2471C8.53604 31.9968 8.43599 31.7513 8.26198 31.5743Z" fill="black"/>
<path d="M8.26198 36.9031C8.08723 36.7261 7.84692 36.6243 7.60007 36.6243C7.35407 36.6243 7.11386 36.7261 6.939 36.9031C6.76509 37.0801 6.66504 37.3256 6.66504 37.5759C6.66504 37.8261 6.76499 38.0717 6.939 38.2486C7.11283 38.4256 7.35407 38.5275 7.60007 38.5275C7.84692 38.5275 8.08816 38.4256 8.26198 38.2486C8.4359 38.0717 8.53604 37.8261 8.53604 37.5759C8.53604 37.3256 8.43599 37.0801 8.26198 36.9031Z" fill="black"/>
<path d="M24.8718 25.9667H11.5942C11.0779 25.9667 10.6592 26.3927 10.6592 26.9182C10.6592 27.4438 11.0779 27.8698 11.5942 27.8698H24.8718C25.3881 27.8698 25.8068 27.4438 25.8068 26.9182C25.8068 26.3927 25.3881 25.9667 24.8718 25.9667Z" fill="black"/>
<path d="M45.91 12.6752C45.0017 12.1415 43.9434 11.9997 42.93 12.2759C41.9168 12.5523 41.0698 13.2136 40.5454 14.1381L28.7787 34.8787C28.7143 34.9925 28.6735 35.1185 28.6592 35.249L27.831 42.7991C27.7898 43.1748 27.971 43.5397 28.2927 43.7288C28.4379 43.8141 28.5992 43.8563 28.7601 43.8563C28.9557 43.8563 29.1506 43.794 29.3147 43.671L35.3255 39.1658C35.4294 39.088 35.5163 38.9891 35.5808 38.8754L47.3474 18.1347C48.4302 16.2263 47.7854 13.7771 45.91 12.6752ZM29.9266 40.8487L30.3591 36.9062L33.0653 38.4962L29.9266 40.8487ZM34.4288 37.0997L30.8658 35.0063L40.3083 18.3624L43.8713 20.4558L34.4288 37.0997ZM45.7279 17.1831L44.8062 18.8077L41.2433 16.7142L42.1649 15.0896C42.4396 14.6054 42.8832 14.259 43.414 14.1143C43.9449 13.9694 44.4992 14.0438 44.9749 14.3234C45.4508 14.603 45.7911 15.0544 45.9333 15.5945C46.0755 16.1346 46.0026 16.6988 45.7279 17.1831Z" fill="black"/>
</svg>
