<svg width="41" height="49" viewBox="0 0 41 49" fill="none" xmlns="http://www.w3.org/2000/svg">
<path d="M30.2952 0.274231H2.80511C1.25837 0.274231 0 1.55485 0 3.12894V12.835C0 13.3605 0.41871 13.7865 0.935038 13.7865C1.45137 13.7865 1.87008 13.3605 1.87008 12.835V3.12894C1.87008 2.60425 2.28953 2.17737 2.80511 2.17737H30.2952C30.8108 2.17737 31.2303 2.60425 31.2303 3.12894V38.5274C31.2303 39.0521 30.8108 39.4789 30.2952 39.4789H2.80511C2.28953 39.4789 1.87008 39.0521 1.87008 38.5274V20.8598C1.87008 20.3343 1.45137 19.9083 0.935038 19.9083C0.41871 19.9083 0 20.3343 0 20.8598V38.5274C0 40.1015 1.25837 41.3821 2.80511 41.3821H30.2952C31.842 41.3821 33.1003 40.1015 33.1003 38.5274V3.12894C33.1003 1.55485 31.842 0.274231 30.2952 0.274231Z" fill="black"/>
<path d="M1.59605 16.4224C1.42222 16.2454 1.18098 16.1445 0.935059 16.1445C0.689138 16.1445 0.447893 16.2454 0.273972 16.4224C0.0999578 16.6003 0 16.8458 0 17.0951C0 17.3464 0.100051 17.5909 0.273972 17.7689C0.447893 17.9459 0.689138 18.0477 0.935059 18.0477C1.18089 18.0477 1.42213 17.9459 1.59605 17.7689C1.77007 17.5919 1.87012 17.3464 1.87012 17.0951C1.87012 16.8449 1.76997 16.6003 1.59605 16.4224Z" fill="black"/>
<path d="M5.34224 43.5698C5.16832 43.3928 4.9281 43.291 4.68115 43.291C4.43523 43.291 4.19399 43.3928 4.02016 43.5698C3.84615 43.7468 3.74609 43.9923 3.74609 44.2426C3.74609 44.4938 3.84624 44.7384 4.02016 44.9154C4.19399 45.0933 4.43523 45.1942 4.68115 45.1942C4.9281 45.1942 5.16832 45.0933 5.34224 44.9154C5.51625 44.7384 5.61621 44.4938 5.61621 44.2426C5.61621 43.9923 5.51616 43.7468 5.34224 43.5698Z" fill="black"/>
<path d="M35.9115 4.08655C35.3952 4.08655 34.9765 4.51257 34.9765 5.03812V42.3397C34.9765 42.8644 34.557 43.2913 34.0414 43.2913H8.42137C7.90504 43.2913 7.48633 43.7173 7.48633 44.2429C7.48633 44.7684 7.90504 45.1945 8.42137 45.1945H34.0414C35.5882 45.1945 36.8466 43.9138 36.8466 42.3397V5.03812C36.8466 4.51257 36.4278 4.08655 35.9115 4.08655Z" fill="black"/>
<path d="M39.6575 7.88684C39.1412 7.88684 38.7225 8.31286 38.7225 8.83841V46.14C38.7225 46.6647 38.303 47.0916 37.7874 47.0916H8.42723C7.9109 47.0916 7.49219 47.5176 7.49219 48.0432C7.49219 48.5687 7.9109 48.9948 8.42723 48.9948H37.7874C39.3342 48.9948 40.5925 47.7141 40.5925 46.14V8.83841C40.5925 8.31286 40.1738 7.88684 39.6575 7.88684Z" fill="black"/>
<path d="M15.1477 7.31586H6.17137C5.65504 7.31586 5.23633 7.74188 5.23633 8.26743V17.4026C5.23633 17.9281 5.65504 18.3541 6.17137 18.3541H15.1477C15.6641 18.3541 16.0828 17.9281 16.0828 17.4026V8.26743C16.0828 7.74188 15.6641 7.31586 15.1477 7.31586ZM14.2127 16.451H7.1064V9.21901H14.2127V16.451Z" fill="black"/>
<path d="M12.1391 22.6744C11.7739 22.3029 11.182 22.3028 10.8167 22.6744L8.33108 25.204L7.17537 24.0278C6.81024 23.6562 6.21836 23.6563 5.85295 24.0278C5.48782 24.3994 5.48782 25.0019 5.85295 25.3735L7.66992 27.2226C7.84533 27.401 8.08311 27.5013 8.33108 27.5013C8.57915 27.5013 8.81683 27.401 8.99234 27.2226L12.1391 24.0201C12.5042 23.6486 12.5042 23.046 12.1391 22.6744Z" fill="black"/>
<path d="M27.4591 23.9684H16.5503C16.0339 23.9684 15.6152 24.3944 15.6152 24.92C15.6152 25.4455 16.0339 25.8715 16.5503 25.8715H27.4591C27.9755 25.8715 28.3942 25.4455 28.3942 24.92C28.3942 24.3944 27.9755 23.9684 27.4591 23.9684Z" fill="black"/>
<path d="M26.9296 7.31586H20.3843C19.8679 7.31586 19.4492 7.74189 19.4492 8.26746C19.4492 8.79302 19.8679 9.21906 20.3843 9.21906H26.9296C27.4459 9.21906 27.8646 8.79302 27.8646 8.26746C27.8646 7.74189 27.4459 7.31586 26.9296 7.31586Z" fill="black"/>
<path d="M26.9296 11.8834H20.3843C19.8679 11.8834 19.4492 12.3094 19.4492 12.835C19.4492 13.3605 19.8679 13.7866 20.3843 13.7866H26.9296C27.4459 13.7866 27.8646 13.3605 27.8646 12.835C27.8646 12.3094 27.4459 11.8834 26.9296 11.8834Z" fill="black"/>
<path d="M26.9296 16.4509H20.3843C19.8679 16.4509 19.4492 16.8769 19.4492 17.4025C19.4492 17.928 19.8679 18.3541 20.3843 18.3541H26.9296C27.4459 18.3541 27.8646 17.928 27.8646 17.4025C27.8646 16.8769 27.4459 16.4509 26.9296 16.4509Z" fill="black"/>
<path d="M12.1391 29.9413C11.7739 29.5698 11.182 29.5697 10.8167 29.9413L8.33108 32.4709L7.17537 31.2946C6.81024 30.9231 6.21836 30.9232 5.85295 31.2946C5.48782 31.6662 5.48782 32.2688 5.85295 32.6404L7.66992 34.4895C7.84533 34.6679 8.08311 34.7682 8.33108 34.7682C8.57915 34.7682 8.81683 34.6679 8.99234 34.4895L12.1391 31.287C12.5042 30.9154 12.5042 30.3129 12.1391 29.9413Z" fill="black"/>
<path d="M27.4591 31.2003H16.5503C16.0339 31.2003 15.6152 31.6263 15.6152 32.1519C15.6152 32.6775 16.0339 33.1035 16.5503 33.1035H27.4591C27.9755 33.1035 28.3942 32.6775 28.3942 32.1519C28.3942 31.6263 27.9755 31.2003 27.4591 31.2003Z" fill="black"/>
</svg>
