<svg width="47" height="48" viewBox="0 0 47 48" fill="none" xmlns="http://www.w3.org/2000/svg">
<path d="M32.9605 24.6345C33.405 24.6345 33.8349 24.7668 34.2053 25.0181L39.4294 28.5627C40.0467 28.9805 40.764 29.202 41.5044 29.202H46.3779V27.6795H41.5051C41.061 27.6795 40.63 27.5472 40.2596 27.2959L38.1496 25.8641V2.27423C38.1496 1.16966 37.2542 0.274231 36.1496 0.274231H11.7244C10.6198 0.274231 9.7244 1.16966 9.7244 2.27423V4.84177H2C0.895432 4.84177 0 5.7372 0 6.84177V45.4722C0 46.5767 0.89543 47.4722 2 47.4722H26.4252C27.5298 47.4722 28.4252 46.5767 28.4252 45.4722V42.9046H36.1496C37.2542 42.9046 38.1496 42.0092 38.1496 40.9046V36.5001C38.1967 36.4886 38.2453 36.4849 38.2924 36.4733L41.7721 35.5883C42.5443 35.3917 43.3387 35.2921 44.1338 35.2921H46.3779V33.7695H44.1338C43.2167 33.7695 42.2996 33.8844 41.4094 34.1108L37.9297 34.9958C36.1411 35.4504 34.2374 35.3764 32.49 34.7836L31.2296 34.3557C30.082 33.9665 28.8869 33.7695 27.6772 33.7695H21.1498C21.1498 32.5106 22.1568 31.4858 23.3939 31.4858H31.6222C32.8597 31.4858 33.8663 30.461 33.8663 29.202C33.8663 28.0341 32.997 27.0796 31.8848 26.945L32.4988 24.6345H32.9605ZM32.0156 36.2276C33.1632 36.6176 34.3587 36.8146 35.568 36.8146C35.9311 36.8146 36.293 36.7826 36.6535 36.7469V39.3821C36.6535 40.4867 35.7581 41.3821 34.6535 41.3821H28.4252V38.892C28.6878 38.5839 28.8912 38.2193 29.0005 37.8067L29.613 35.4976C29.9983 35.5775 30.3804 35.6727 30.7555 35.8006L32.0156 36.2276ZM28.114 35.3095L27.5566 37.4089C27.4116 37.9557 26.9218 38.3371 26.3659 38.3371H26.1234C25.4436 38.3371 24.8907 37.7747 24.8907 37.0826C24.8907 36.9714 24.9049 36.8618 24.9334 36.7551L25.3217 35.2921H27.6772C27.8229 35.2921 27.9683 35.3036 28.114 35.3095ZM23.7715 35.2921L23.4888 36.357C23.426 36.593 23.3946 36.8365 23.3946 37.0826C23.3946 38.1118 23.9542 39.0017 24.7734 39.4812L24.5386 40.4357L25.9897 40.8052L26.2224 39.8596H26.3659C26.5588 39.8596 26.7458 39.8321 26.9291 39.7927V43.9497C26.9291 45.0542 26.0337 45.9497 24.9291 45.9497H3.49606C2.39149 45.9497 1.49606 45.0542 1.49606 43.9497V8.36429C1.49606 7.25972 2.39149 6.36429 3.49606 6.36429H11.2205V3.79675C11.2205 2.69218 12.1159 1.79675 13.2205 1.79675H34.6535C35.7581 1.79675 36.6535 2.69218 36.6535 3.79675V24.8493L35.0355 23.7513C34.4186 23.3335 33.7012 23.1119 32.9605 23.1119H32.9028L36.0162 11.3894C36.079 11.1534 36.1104 10.9099 36.1104 10.6638C36.1104 9.13239 34.8861 7.8868 33.3816 7.8868H33.1391C31.9089 7.8868 30.8256 8.73095 30.5045 9.93974L28.4252 17.7701V6.84177C28.4252 5.7372 27.5298 4.84177 26.4252 4.84177H12.7165V6.36429H24.9291C26.0337 6.36429 26.9291 7.25972 26.9291 8.36429V23.1119H25.3816C24.5674 23.1119 23.8008 23.3866 23.1597 23.8732H15.7087V25.3957H21.5881L20.092 26.9182H15.7087V28.4407H18.5967L17.3468 29.7127C16.9056 30.161 16.6623 30.758 16.6623 31.3936C16.6623 32.7039 17.7095 33.7695 18.9977 33.7695C19.2282 33.7695 19.4503 33.7246 19.6658 33.6591C19.665 33.6963 19.6544 33.7316 19.6544 33.7695C19.6544 34.6092 20.3254 35.2921 21.1505 35.2921H23.7715ZM29.5337 29.9633H26.737L29.8957 18.0694L32.4616 18.9395L29.5337 29.9633ZM23.7949 25.3028C24.2131 24.8779 24.7913 24.6345 25.3816 24.6345H26.6022L25.9919 26.932C25.0455 26.9669 24.1583 27.3476 23.4852 28.0326L19.5902 31.9965C19.4338 32.1556 19.2176 32.247 18.997 32.247C18.5339 32.247 18.1577 31.8642 18.1577 31.3936C18.1577 31.1654 18.2453 30.9513 18.4038 30.7899L23.7949 25.3028ZM24.5429 29.1091C24.8256 28.8214 25.1854 28.6251 25.5693 28.5229L25.1869 29.9633H23.7043L24.5429 29.1091ZM34.5716 10.992L33.6556 14.4411L31.0897 13.571L31.9484 10.3375C32.0941 9.79069 32.5835 9.40932 33.1391 9.40932H33.3816C34.0617 9.40932 34.6143 9.97171 34.6143 10.6638C34.6143 10.775 34.6001 10.8846 34.5716 10.992ZM30.6992 15.0433L33.2651 15.9135L32.852 17.4672L30.2861 16.597L30.6992 15.0433ZM31.6222 28.4407C32.0346 28.4407 32.3702 28.7827 32.3702 29.202C32.3702 29.6213 32.0346 29.9633 31.6222 29.9633H31.0831L31.4878 28.4407H31.6222Z" fill="black"/>
<path d="M22.441 7.88684H2.99219V15.4994H22.441V7.88684ZM20.9449 13.9769H4.48825V9.40935H20.9449V13.9769Z" fill="black"/>
<path d="M5.98438 10.9319H7.48041V12.4553H5.98438V10.9319Z" fill="black"/>
<path d="M8.97656 10.9319H10.4726V12.4553H8.97656V10.9319Z" fill="black"/>
<path d="M11.9688 10.9319H13.4648V12.4553H11.9688V10.9319Z" fill="black"/>
<path d="M14.9609 10.9319H16.457V12.4553H14.9609V10.9319Z" fill="black"/>
<path d="M17.9531 10.9319H19.4492V12.4553H17.9531V10.9319Z" fill="black"/>
<path d="M11.9686 24.6345H10.4725V27.6795H4.48825V21.5894H8.97644V20.0669H2.99219V29.202H11.9686V24.6345Z" fill="black"/>
<path d="M14.4314 17.2449L7.48002 24.3193L6.51284 23.335L5.45508 24.4115L7.48002 26.4722L15.4892 18.3214L14.4314 17.2449Z" fill="black"/>
<path d="M10.4725 40.6209H4.48825V34.5308H8.97644V33.0083H2.99219V42.1434H11.9686V37.5759H10.4725V40.6209Z" fill="black"/>
<path d="M6.51284 36.2764L5.45508 37.3528L7.48002 39.4136L15.4892 31.2627L14.4314 30.1863L7.48002 37.2606L6.51284 36.2764Z" fill="black"/>
<path d="M23.9365 42.1434H25.4326V43.6669H23.9365V42.1434Z" fill="black"/>
<path d="M14.2129 42.1434H22.4412V43.6669H14.2129V42.1434Z" fill="black"/>
<path d="M15.709 20.8282H25.4334V22.3516H15.709V20.8282Z" fill="black"/>
</svg>
